<svg xmlns="http://www.w3.org/2000/svg" viewBox="0 0 98.1 118">
  <path d="M91.8 15.6C80.9-.1 59.2-4.7 43.6 5.2L16.1 22.8C8.6 27.5 3.4 35.2 1.9 43.9c-1.3 7.3-.2 14.8 3.3 21.3-2.4 3.6-4 7.6-4.7 11.8-1.6 8.9.5 18.1 5.7 25.4 11 15.7 32.6 20.3 48.2 10.4l27.5-17.6c7.5-4.7 12.7-12.4 14.2-21.1 1.3-7.3.2-14.8-3.3-21.3 2.4-3.6 4-7.6 4.7-11.8 1.7-9-.4-18.2-5.7-25.4" fill="#ff3e00"/>
  <path d="M40.9 103.9a28 28 0 0 1-30-13.3 20.6 20.6 0 0 1-3.4-14.9 15 15 0 0 1 .6-2.4l.5-1.5 1.4 1a42.4 42.4 0 0 0 12.8 6.4l1.2.4-.1 1.2a6.3 6.3 0 0 0 1.1 4.6 8.5 8.5 0 0 0 9.1 4 7.8 7.8 0 0 0 2.1-.8l27.5-17.5a6 6 0 0 0 2.7-4.2 6.2 6.2 0 0 0-1-4.5 8.5 8.5 0 0 0-9.2-4 7.6 7.6 0 0 0-2 .8L43.7 69a24 24 0 0 1-6.7 2.5 28 28 0 0 1-30-13.3 20.6 20.6 0 0 1-3.4-14.9 19.9 19.9 0 0 1 8.8-13.8l27.5-17.6a24 24 0 0 1 6.7-2.5 28 28 0 0 1 30 13.3 20.6 20.6 0 0 1 3.4 14.9 16 16 0 0 1-.6 2.4l-.5 1.5-1.4-1a42.4 42.4 0 0 0-12.8-6.4l-1.2-.4.1-1.2a6.3 6.3 0 0 0-1.1-4.6 8.5 8.5 0 0 0-9.1-4 7.8 7.8 0 0 0-2.1.8L24.8 42.3a6 6 0 0 0-2.7 4.2 6.2 6.2 0 0 0 1 4.5 8.5 8.5 0 0 0 9.2 4 7.6 7.6 0 0 0 2-.8l10.5-6.7a24 24 0 0 1 6.7-2.5 28 28 0 0 1 30 13.3 20.6 20.6 0 0 1 3.4 14.9 19.9 19.9 0 0 1-8.8 13.8l-27.5 17.5a24 24 0 0 1-6.7 2.5" fill="#fff"/>
</svg>